<svg xmlns="http://www.w3.org/2000/svg" width="420" height="420"><path d="m333 84 3.02 2.332 2.793 2.168c.81.63 1.621 1.258 2.457 1.906L343 92v2l1.804.81c2.236 1.212 3.6 2.4 5.333 4.245l1.735 1.844 1.815 1.976 1.888 2.045c5.242 5.75 9.999 11.67 14.425 18.08l2.16 3.117c17.45 26.16 28.42 54.759 32.84 85.883l.286 1.927c.994 7.552.958 15.156.964 22.76l.002 2.213c-.067 45.883-15.731 88.305-44.252 124.1a483.186 483.186 0 0 0-3 4l3.324.184 4.363.253 2.186.12c3.794.225 7.414.571 11.127 1.443l-1 3c-10.05 1.613-20.028 2.533-30.188 3.063l-2.298.124c-27.185 1.466-54.391 1.897-81.608 2.341l-6.14.102c-30.409.5-60.794.461-91.204-.005-.693-.01-1.387-.02-2.102-.032-21.244-.321-42.476-.809-63.71-1.53l-3.5-.114c-11.496-.38-22.961-.9-34.422-1.89l-2.702-.226C56.187 373.37 51.72 372.528 47 371l1-2c2.285-.414 2.285-.414 5.063-.625l2.785-.227L58 368l-1.398-1.914c-1.403-1.923-2.8-3.85-4.196-5.777a490.039 490.039 0 0 0-4.812-6.524c-14.638-19.704-24.75-41.94-31.032-65.66l-.674-2.548c-3.864-15.663-5.446-31.163-5.325-47.264l.009-2.63C10.645 221.48 11.608 207.84 15 194l.65-2.7c12.92-52.202 45.725-95.886 91.537-123.863C178.037 25.373 269.115 32.398 333 84Z" fill="#A96C91"/><path d="m106.717 167.86 2.732-.01c3.033-.008 6.066-.01 9.1-.011l6.508-.015c5.903-.013 11.806-.02 17.709-.024l11.056-.012c11.524-.013 23.048-.023 34.572-.027 13.316-.004 26.632-.022 39.948-.05 10.284-.022 20.569-.033 30.853-.034 6.147-.001 12.293-.007 18.44-.025 5.78-.016 11.56-.018 17.34-.01 2.123.001 4.246-.003 6.37-.013 2.894-.013 5.789-.007 8.684.004l2.555-.025c4.614.04 7.689.364 11.416 3.392 2.073 4.052 2.39 7.7 1.66 12.125-1.173 3.331-3.896 4.93-6.66 6.875a233.029 233.029 0 0 0-4.188 3.562l-1.98 1.692c-1.916 1.711-1.916 1.711-3.383 3.96L308 201h-3v-2c-9.23.322-9.23.322-17 5l-2.875 2.5c-3.517 4.385-2.66 10.203-2.125 15.5 1.2 3.602 2.853 5.023 5.687 7.437C290 231 290 231 290 235h-2l-.688 2.625c-1.57 4.04-3.333 6.247-6.312 9.375h-2v2c-1.61 1.621-1.61 1.621-3.75 3.437l-2.11 1.81C267.34 259 267.34 259 265 259v60l6-1c7.16-.694 12.85.134 19 4 2.061 1.796 4.005 3.623 5.883 5.61 3.035 1.993 5.574 1.61 9.117 1.39l.113-3.328c.699-17.935 2.326-35.796 3.887-53.672l-2.82-.199-3.75-.266-3.696-.261c-5.248-.385-10.491-.823-15.734-1.274.143-2.646.29-5.292.437-7.938l.12-2.228.127-2.236.11-2.016c.308-3.87.777-7.724 1.206-11.582l27 1c-.03-3.28-.03-3.28-.063-6.625-.034-7.498.418-14.903 1.063-22.375 10.722-.452 21.354.885 32 2a324.539 324.539 0 0 1-1 30l1.914-.035c7.736-.078 15.378.405 23.086 1.035.144 8.717-.28 17.313-1 26-3.562.03-7.125.047-10.688.062l-3.052.026-2.96.01-2.713.016c-2.626-.116-5.02-.573-7.587-1.114l.03 2.216c.057 7.189-.273 14.25-.905 21.409l-.547 6.582c-.287 3.385-.576 6.77-.869 10.154-.972 11.3-1.904 22.612-2.209 33.951l-.13 2.46c-.09 4.243-.09 4.243 1.97 7.793 1.496 1.219 3.075 2.334 4.66 3.435.875 2.312.875 2.312 1 4l1.703-.07c6.615-.142 13.098.346 19.672 1.007l2.63.264c4.047.424 8.022.891 11.995 1.799l-1 3c-10.05 1.613-20.028 2.533-30.188 3.062l-2.298.125c-27.185 1.466-54.391 1.897-81.608 2.341l-6.14.102c-30.409.5-60.794.461-91.204-.005-.693-.01-1.387-.02-2.102-.032-21.244-.321-42.476-.809-63.71-1.53l-3.5-.114c-11.496-.38-22.961-.9-34.422-1.89l-2.702-.226C56.187 373.37 51.72 372.528 47 371l1-2c7.261-2.108 14.925-2.361 22.434-2.64 2.133-.102 4.267-.205 6.4-.31 3.32-.155 6.64-.301 9.96-.425 3.236-.125 6.468-.286 9.702-.453l3.015-.086c2.634-.151 4.96-.335 7.489-1.086 2.59-2.835 2.59-2.835 4-6 2.219-1.293 2.219-1.293 4.5-2.188 3.004-1.511 4.254-2.33 5.797-5.359a219.838 219.838 0 0 0 1.824-5.8c2.086-6.295 7.243-10.448 12.879-13.653 4.8-1.8 8.891-2.209 14-2l.625-2.188c2.033-4.157 5.203-6.726 9.375-8.812a95.33 95.33 0 0 1 5.125-.063l2.758.028L170 318v2c3.247.354 4.605.29 7.281-1.68l2.219-2.195c3.571-3.509 6.363-5.996 11.547-6.21 3.251.042 6.493.17 9.74.339 5.33.144 8.874-.606 13.51-3.286C216 306 216 306 219 305c1.616-4.847 1.31-9.798 1.375-14.875l.113-3.3c.149-6.444.149-6.444-2.84-11.973-5.86-4.098-10.617-5.399-17.648-5.852l-.7-2.047c-1.965-5.378-3.387-8.678-8.3-11.953v-2c-.562-.26-1.124-.52-1.703-.79-2.532-1.334-4.735-2.899-7.047-4.585-4.268-3.033-8.503-5.427-13.25-7.625v-2l-2.172-.383c-2.823-.616-5.376-1.473-8.078-2.492a168.495 168.495 0 0 0-10.688-3.625c-3.613-1.18-5.53-2.607-8.062-5.5l-2.355-1.285c-3.107-2.015-4.627-4.104-6.708-7.153-6.2-9.023-12.769-13.951-23.328-16.804C103.28 199.5 99.154 197.74 95 196v-2l-3.313-.25C88 193 88 193 86.062 191.437c-1.53-3.511-1.704-6.714-1.062-10.437 5.062-9.734 11.012-13.151 21.717-13.14Z" fill="#526E31"/><path d="M233.383 69.797c2.76 1.324 5.001 2.447 6.953 4.844 2.53 2.067 4.593 1.504 7.789 1.296 9.084-.191 14.774 2.635 21.465 8.598C271 86 271 86 273 89c2.415.656 2.415.656 5.188.938 6.562 1.055 11.117 2.917 15.625 8C296.5 101.7 298 104.356 298 109l2.5.188c7.194 1.67 13.55 6.398 17.656 12.542 3.287 5.506 4.025 9.663 4.156 16.02l.114 3.547C322 145 322 145 318 153l61 1c-3.476 2.317-6.908 3.236-10.887 4.313l-2.35.65c-2.483.684-4.967 1.36-7.45 2.037l-4.96 1.367c-3.061.843-6.124 1.685-9.188 2.52l-1.856.506L340 166l-3.506 1.02c-4.914 1.218-9.66 1.273-14.703 1.268l-3.036.02c-3.344.02-6.688.025-10.032.03l-7.212.035c-7.206.034-14.413.05-21.619.064-3.406.007-6.812.016-10.219.025a20804.368 20804.368 0 0 1-36.238.067l-2.204.002-4.418.004-2.214.003c-11.797.012-23.594.054-35.391.11-12.154.057-24.307.088-36.461.092-6.807.003-13.613.017-20.42.061-6.42.04-12.838.046-19.258.027a650.91 650.91 0 0 0-7.007.033c-15.791.152-29.444-2.166-44.476-7.03-3.527-1.133-7.082-2.14-10.648-3.143l-3.168-.91A291.71 291.71 0 0 0 37 155v-1h52v-12c3.472-10.148 9.234-18.15 19-23 2.442-.675 4.45-.892 7-1l.008-1.836c.373-8.092 3.026-14.35 8.922-20.02 4.966-3.913 10.16-6.936 16.57-7.394 4.428-.949 5.834-2.852 8.816-6.094 3.275-3.22 6.626-3.597 11.059-3.844 3.625.188 3.625.188 5.566.63 4.125.896 4.125.896 7.957-.57 1.31-1.068 2.61-2.146 3.903-3.235C183.966 71.048 191.449 69.16 199 70c2.574.729 5.09 1.527 7.605 2.441 3.954.923 6.59.038 10.02-2.004 5.421-2.308 11.13-2.522 16.758-.64Z" fill="#FD9E9C"/><path d="M313 216c10.722-.452 21.354.885 32 2a324.539 324.539 0 0 1-1 30l1.914-.035c7.736-.078 15.378.405 23.086 1.035.144 8.717-.28 17.313-1 26-3.562.03-7.125.047-10.688.063l-3.052.025-2.96.01-2.713.016c-2.626-.116-5.02-.573-7.587-1.114l.03 2.216c.057 7.189-.273 14.25-.905 21.409l-.547 6.582c-.287 3.385-.576 6.77-.869 10.154-.972 11.3-1.904 22.612-2.209 33.952l-.13 2.46c-.09 4.242-.09 4.242 1.97 7.792 1.496 1.219 3.075 2.334 4.66 3.435.875 2.313.875 2.313 1 4l1.703-.07c6.615-.142 13.098.346 19.672 1.007l2.63.264c4.047.424 8.022.891 11.995 1.799l-1 3c-10.05 1.613-20.028 2.533-30.188 3.063l-2.298.124c-27.185 1.466-54.391 1.897-81.608 2.341l-6.14.102c-30.409.5-60.794.461-91.204-.005-.693-.01-1.387-.02-2.102-.032-21.244-.321-42.476-.809-63.71-1.53l-3.5-.114c-11.496-.38-22.961-.9-34.422-1.89l-2.702-.226C56.187 373.37 51.72 372.528 47 371l1-2c7.261-2.108 14.925-2.361 22.434-2.64 2.133-.102 4.267-.205 6.4-.31 3.32-.155 6.64-.301 9.96-.425 3.236-.125 6.468-.286 9.702-.453l3.015-.086c2.634-.151 4.96-.335 7.489-1.086 2.59-2.835 2.59-2.835 4-6 2.219-1.293 2.219-1.293 4.5-2.188 3.004-1.511 4.254-2.33 5.797-5.359a219.838 219.838 0 0 0 1.824-5.8c2.086-6.295 7.243-10.448 12.879-13.653 4.8-1.8 8.891-2.209 14-2l.625-2.188c2.033-4.157 5.203-6.726 9.375-8.812a95.33 95.33 0 0 1 5.125-.063l2.758.028L170 318v2c3.247.354 4.605.29 7.281-1.68l2.219-2.195c3.788-3.722 6.752-5.885 12.14-6.355 1.292.02 1.292.02 2.61.043l2.64.019C199 310 199 310 200 311c.073 2.863.092 5.7.063 8.563l-.014 2.443c-.012 1.998-.03 3.996-.049 5.994l9 2v2l1.75.313c2.58.788 4.105 2.078 6.25 3.687 2.147.705 2.147.705 4 1l.688-1.75c2.574-4.414 6.52-6.786 11.312-8.25 3.11-.235 6.197-.189 9.313-.125l2.533.027c2.051.024 4.103.06 6.154.098v2l2.188.25c3.424.913 5.282 2.292 7.812 4.75v3l4 1v-18c8.328-2.776 14.845-3.256 22.844.645 3.074 1.932 5.55 4.332 8.039 6.964 3.035 1.994 5.574 1.612 9.117 1.391l.113-3.328c.699-17.935 2.326-35.796 3.887-53.672l-2.82-.199-3.75-.266-3.696-.261c-5.248-.385-10.491-.823-15.734-1.274.143-2.646.29-5.292.438-7.938l.119-2.228.127-2.236.11-2.016c.308-3.87.777-7.724 1.206-11.582l27 1c-.03-3.28-.03-3.28-.063-6.625-.034-7.498.418-14.903 1.063-22.375Z" fill="#653402"/><path d="m377.688 156.25 2.324.203C382 157 382 157 384 160l3-1c2.004.5 2.004.5 4 2a55.897 55.897 0 0 1 2.938 7l.766 2.147c4.773 13.656 8.26 27.529 10.296 41.853l.29 1.944c.993 7.546.954 15.145.96 22.744l.002 2.212c-.067 45.883-15.731 88.305-44.252 124.1l-1.32 2.352C359 367 359 367 355.566 367.382c-1.335-.063-2.67-.15-4.003-.257-.669-.015-1.337-.03-2.026-.047-1.97-.133-1.97-.133-5.537-1.078-2.223-2.883-2.223-2.883-4-6l-2.086-1.186C336 357 336 357 335.521 353.484c0-1.542.027-3.084.073-4.625l.04-2.616c.322-13.298 1.566-26.57 2.684-39.82.307-3.668.606-7.337.905-11.005.582-7.14 1.18-14.279 1.777-21.418l27 1-.063-6.25c-.006-6.633.387-13.155 1.063-19.75l-2.676.035c-7.51.057-14.862-.182-22.324-1.035a324.539 324.539 0 0 1 1-30l-2.684.07c-9.924.145-19.489-.723-29.316-2.07l.035 2.535c.069 8.88-.34 17.614-1.035 26.465-9.072.095-17.982.145-27-1l.125 3.438C285.149 255 283.963 262.512 283 270l2.133-.07c8.126-.149 15.857.743 23.867 2.07.278 10.27-.475 20.448-1.227 30.685-.212 2.902-.416 5.805-.619 8.708l-.4 5.548-.183 2.623-.182 2.43-.155 2.132C306 326 306 326 305 329c-2.696.843-4.245 1.304-7 1-2.188-1.532-3.995-3.301-5.93-5.14-5.91-5.308-11.6-6.099-19.382-5.958l-2.245.022c-1.814.018-3.629.046-5.443.076-.232-7.701-.41-15.402-.518-23.106a623.054 623.054 0 0 0-.236-10.731 430.12 430.12 0 0 1-.195-10.368 221.63 221.63 0 0 0-.184-5.854c-.005-8.76-.005-8.76 3.355-12.246 2.714-1.87 2.714-1.87 5.43-3.356 2.62-1.262 2.62-1.262 4.348-4.339h2v-2h2l.813-1.813C283 243 283 243 284.5 241.563c1.899-1.978 2.599-3.998 3.5-6.562h2v-4l-3-1-1-4-3-1c-1.658-4.973-1.805-9.828-1-15 1.853-3.289 4.13-5.578 7-8l2.25-2c4.479-1.629 9.037-1.223 13.75-1v2h3l.797-1.781c2.622-4.837 6.942-8.41 11.515-11.344 3.151-2.198 3.938-3.127 4.688-6.875.09-3.143.059-6.026-1-9a134.34 134.34 0 0 0-5-4l2.193-.043c10.25-.47 19.51-3.087 29.307-5.957a3879.69 3879.69 0 0 1 7.287-2.089c1.498-.43 2.995-.862 4.491-1.299 10.028-2.91 10.028-2.91 15.41-2.362Z" fill="#A96C90"/><path d="M233.313 73.02c2.732 1.662 5.078 3.333 7.273 5.668L242 80c2.307-.293 2.307-.293 5-1 6.87-.45 12.505.207 18.023 4.617C268.15 86.59 270.245 88.65 271 93l2.45-.105 3.238-.082 3.199-.106c4.345.409 6.817 2.006 9.879 5.047l1.484 1.808 1.516 1.817c2.658 3.492 2.314 6.314 2.234 10.621l1.758.078c5.522.401 8.801 1.39 13.242 4.922l2.625 1.75c5.11 4.842 6.559 9.202 6.849 16.124.086 6.941-.52 12.255-4.474 18.126-1.85 1.85-4.477 1.123-6.94 1.13l-2.608-.01-2.75.003c-3.065.002-6.13-.004-9.194-.01l-6.562.001c-5.959 0-11.917-.006-17.876-.013-6.219-.006-12.438-.006-18.658-.008-10.445-.002-20.89-.009-31.336-.018-10.76-.009-21.522-.016-32.282-.02h-2.009l-9.976-.005c-27.603-.01-55.206-.028-82.809-.05-.019-1.77-.032-3.54-.044-5.31l-.024-2.986C92.117 138.351 95.92 132.08 101 127c3.031-2.627 5.686-4.687 9.625-5.625C113 122 113 122 115.25 124.313c4.44 4.338 9.781 5.81 15.938 6 3.633-.298 6.41-1.076 9.812-2.313h4l1 7h2l1.688 2.75c2.84 3.992 4.97 5.079 9.312 7.25l1.863 1.086c5.086 2.176 11.522 1.673 16.746.156 3.548-1.512 6.108-2.98 8.953-5.617L189 139c3.375.75 3.375.75 5.398 1.414 5.683 1.28 11.798.722 17.602.586 2.7-6.28 4.7-12.285 6-19l-1.875-.438C214 121 214 121 212 120v-2h-2l-2-5 10 2c-1.519-8.26-3.771-15.249-7.793-22.637C209 90 209 90 209 88h-2v-2h-2a422.747 422.747 0 0 1-3.36-3.492c-2.688-2.47-5.77-4.326-8.847-6.274L191 75v-1c6.473-.189 11.86-.246 18 2 3.214-.247 5.273-1.134 8.188-2.563 5.206-2.275 10.86-2.738 16.125-.417Z" fill="#F98887"/><path d="M173 269v2c4.355 2.244 7.263 2.08 12 1l2.668-1.523c4.224-1.872 7.645-1.956 12.207-1.914l2.316-.061c7.004.006 11.87 2.113 17.274 6.498 2.476 4.839 2.152 9.647 2.097 15l.073 3.273c-.015 7.813-.015 7.813-2.67 11.727-8.028 5.416-13.283 6.461-22.899 5.844-6.814-.265-11.867 1.256-16.984 5.894l-1.27 1.575L175 321c-2.875-.125-2.875-.125-5-1v-2c-6.358.251-11.038.629-16 5l-1.5 3.063c-3.644 4.281-7.629 4.146-13.012 5.113-6.591 1.557-10.597 5.155-14.3 10.699-1.592 2.746-2.662 5.42-3.626 8.438-1.131 3.31-1.46 3.62-4.624 5.687-2.938 1-2.938 1-4.938 1-2.507-12.306-4.915-24.615-7-37l-.629-3.734C103.523 311.023 103 306.35 103 301l18-3-3-19h-7c1.313-2 1.313-2 3-4h3v-2c2.955-2.744 3.775-3 8-3v-2c1.562-.482 3.124-.96 4.688-1.438l2.636-.808c13.862-3.906 27.666-2.697 40.676 3.246Z" fill="#BB7DA2"/><path d="M313 216c10.722-.452 21.354.885 32 2a324.539 324.539 0 0 1-1 30l1.914-.035c7.736-.078 15.378.405 23.086 1.035.144 8.717-.28 17.313-1 26-3.562.03-7.125.047-10.688.063l-3.052.025-2.96.01-2.713.016c-2.626-.116-5.02-.573-7.587-1.114l.03 2.215c.054 7.196-.262 14.277-.87 21.445l-.262 3.242c-.274 3.388-.554 6.774-.836 10.16-.366 4.45-.73 8.899-1.09 13.348l-.262 3.246c-.748 9.44-1.284 18.884-1.71 28.344l-9-2-.078-2.195c-.43-7.321-1.43-11.499-6.906-16.684-5.117-4.367-8.367-5.581-15.016-6.121.649-19.053 2.342-38.015 4-57l-2.82-.199-3.75-.266-3.696-.261c-5.248-.385-10.491-.823-15.734-1.274.143-2.646.29-5.292.438-7.938l.119-2.228.127-2.236.11-2.016c.308-3.87.777-7.724 1.206-11.582l27 1c-.03-3.28-.03-3.28-.063-6.625-.034-7.498.418-14.903 1.063-22.375Z" fill="#823764"/><path d="M233.383 69.797c2.76 1.324 5.001 2.447 6.953 4.844 2.53 2.067 4.593 1.504 7.789 1.296 9.084-.191 14.774 2.635 21.465 8.598C271 86 271 86 273 89c2.415.656 2.415.656 5.188.938 6.562 1.055 11.117 2.917 15.625 8C296.5 101.7 298 104.356 298 109l2.5.188c7.194 1.67 13.55 6.398 17.656 12.542 3.287 5.506 4.025 9.663 4.156 16.02l.114 3.547C322 145 322 145 318 153l61 1c-3.476 2.317-6.908 3.236-10.887 4.313l-2.35.65c-2.483.684-4.967 1.36-7.45 2.037l-4.96 1.367c-3.061.843-6.124 1.685-9.188 2.52l-1.856.506L340 166l-3.506 1.02c-4.914 1.218-9.66 1.273-14.703 1.268l-3.036.02c-3.344.02-6.688.025-10.032.03l-7.212.035c-7.206.034-14.413.05-21.619.064-3.406.007-6.812.016-10.219.025a20804.368 20804.368 0 0 1-36.238.067l-2.204.002-4.418.004-2.214.003c-11.797.012-23.594.054-35.391.11-12.154.057-24.307.088-36.461.092-6.807.003-13.613.017-20.42.061-6.42.04-12.838.046-19.258.027a650.91 650.91 0 0 0-7.007.033c-15.791.152-29.444-2.166-44.476-7.03-3.527-1.133-7.082-2.14-10.648-3.143l-3.168-.91A291.71 291.71 0 0 0 37 155v-1h52v-12c3.472-10.148 9.234-18.15 19-23 2.442-.675 4.45-.892 7-1l.008-1.836c.373-8.092 3.026-14.35 8.922-20.02 4.966-3.913 10.16-6.936 16.57-7.394 4.428-.949 5.834-2.852 8.816-6.094 3.275-3.22 6.626-3.597 11.059-3.844 3.625.188 3.625.188 5.566.63 4.125.896 4.125.896 7.957-.57 1.31-1.068 2.61-2.146 3.903-3.235C183.966 71.048 191.449 69.16 199 70c2.574.729 5.09 1.527 7.605 2.441 3.954.923 6.59.038 10.02-2.004 5.421-2.308 11.13-2.522 16.758-.64ZM214 75c-3.688 1.324-4.778 1.091-8.5-.438-6.204-2.537-13.435-2.75-19.867-.87C180.93 75.877 176.5 79.171 173 83v2l-6-1v-2c-6.87-.507-12.311-.182-18 4l-1.813 2.625c-2.623 2.849-3.635 2.8-7.375 3.313-7.255 1.028-12.128 4.307-17.187 9.5-3.997 6.302-5.072 11.256-4.625 18.562h-3.313c-6.377.827-11.1 4.713-15.687 9-6.463 8.445-7 13.967-7 25h222c5.035-8.811 6.118-15.053 5-25-2.057-7.008-6.803-11.401-13-15-3.822-1.649-6.85-2.244-11-2l.25-3.125c-.427-6.622-4.458-10.574-9.25-14.875-3.285-1.095-5.737-1.1-9.188-1.063l-3.292.028L271 93l-.766-2.27c-2.373-5.248-7.12-8.717-12.234-11.168-4.597-.861-9.063-1.223-13.563.313-3.123.16-3.69-.667-6-2.688l-1.69-1.644c-4.178-3.69-7.816-3.904-13.216-3.809-3.66.384-6.233 1.65-9.531 3.266Z" fill="#FBFBFB"/><path d="M12 264c9.968.182 17.86 2.286 27 6v2l2.313.875C44 274 44 274 47 276v2l1.75.688c2.814 1.641 4.277 3.748 6.25 6.312l2 1-.125 3.438c-.014 3.963.666 7.47 1.688 11.289.536 2.788.502 5.44.437 8.273l2.852-.656 3.773-.844 3.727-.844c3.32-.597 6.287-.78 9.648-.656 2.156 10.52 4.08 21.038 5.719 31.652l.39 2.515c.253 1.632.503 3.264.75 4.896a156.007 156.007 0 0 0 2.756 13.807c.436 2.412.447 4.685.385 7.13a373.655 373.655 0 0 1-12.805 1.459c-1.451.151-2.9.323-4.347.516-4.794.633-9.076.96-13.848.025-3.714-3.132-5.741-6.747-8-11a86.433 86.433 0 0 0-2.617-3.504C28.233 327.554 15.576 296.122 12 264Z" fill="#BB7DA2"/><path d="M306 116c3.938.583 6.172 2.243 9 5 5.19 7.295 4.909 15.4 4 24-1.076 3.43-2.404 6.404-5 9-2.857.098-5.69.13-8.548.12l-2.75.003c-3.065.002-6.13-.004-9.194-.01l-6.562.001c-5.959 0-11.917-.006-17.876-.013-6.219-.006-12.438-.006-18.658-.008-10.445-.002-20.89-.009-31.336-.018-10.76-.009-21.522-.016-32.282-.02h-2.009l-9.976-.005c-27.603-.01-55.206-.028-82.809-.05-.019-1.77-.032-3.54-.044-5.31l-.024-2.986C92.117 138.351 95.92 132.08 101 127c3.031-2.627 5.686-4.687 9.625-5.625C113 122 113 122 115.25 124.313c4.44 4.338 9.781 5.81 15.938 6 3.633-.298 6.41-1.076 9.812-2.313h4l1 7h2l1.688 2.75c2.84 3.992 4.97 5.079 9.312 7.25l1.863 1.086c5.086 2.176 11.522 1.673 16.746.156 3.548-1.512 6.108-2.98 8.953-5.617L189 139c3.375.75 3.375.75 5.434 1.398 8.403 1.97 17.32 1.651 24.93-2.523C221 137 221 137 223 137l1-3h3v2l4 1v2c8.702 2.942 15.08 4.003 23.852.785C257 139 257 139 260.437 138.063c2.678-.83 2.678-.83 3.875-3.063l.688-2 1-2c2.496 1.152 4.482 2.367 6.688 4.043 5.757 3.401 11.827 2.763 18.312 1.957 6.109-2.228 9.765-6.47 13.188-11.875 1.14-2.982 1.447-5.966 1.812-9.125Z" fill="#EA6C6C"/><path d="M400 282c1.082 3.247.963 3.932.031 7.07l-.72 2.44-.811 2.615-.835 2.715c-6.624 21.044-16.354 40.635-29.434 58.418-1.138 1.61-2.163 3.3-3.176 4.992-1.856 2.892-3.214 4.811-6.055 6.75-5.264.842-9.893.741-15-1-2.203-2.906-2.203-2.906-4-6l-2.089-1.153C336 357 336 357 335.54 353.202c.005-1.614.036-3.229.086-4.843l.043-2.66c.264-11.183 1.307-22.316 2.332-33.449.194-2.173.386-4.346.578-6.52.465-5.244.94-10.487 1.422-15.73h15v2l2.875.25c5.015.69 9.51 2.753 14.125 4.75l1-2h2l1-4h2v-2h3v-2c6.628-3.874 11.297-5.621 19-5Z" fill="#BB7DA2"/><path d="M96 261c1.345 7.097 2.24 13.773 2 21l3.36-.656 4.39-.844 2.21-.434c3.433-.655 6.532-1.066 10.04-1.066 2.134 6.26 2.59 12.422 3 19-2.06.507-4.124 1.005-6.188 1.5l-3.48.844c-2.918.574-5.381.709-8.332.656 2.055 12.651 4.191 25.276 6.63 37.859A552.589 552.589 0 0 1 113 358h-2l-.875 2.375C109 363 109 363 107 365c-1.88.319-1.88.319-4.133.414l-2.441.117-2.551.094-2.574.117c-2.1.095-4.2.177-6.301.258-1.965-8.543-3.549-17.076-4.87-25.737a577.695 577.695 0 0 0-2.755-16.325C80.293 317.969 79.48 312.048 79 306l-3.36.656-4.39.844-2.21.434C65.606 308.589 62.507 309 59 309c-.506-2.395-1.005-4.79-1.5-7.188l-.434-2.04c-.747-3.647-1.24-7.048-1.066-10.772 6.468-1.512 12.356-2.214 19-2l-.656-2.781C72.862 277.686 71.598 271.703 72 265c16.983-6.29 16.983-6.29 24-4Z" fill="#823765"/><path d="M177 168h118v1l-2.625.75c-9.366 3.469-13.389 9.793-17.5 18.375-.688 1.42-1.378 2.84-2.07 4.258l-.907 1.887C271 196 271 196 269 199h-2v2c-2.047 1.438-2.047 1.438-4.75 3l-2.672 1.563L257 207l-1.809 1.172c-3.43 1.296-6.888 1.122-10.504 1.078l-2.407-.02c-15.41-.265-26.143-2.668-38.28-12.23l-2.563-1.75c-3.85-3.554-6.51-7.928-9.437-12.25-3.282-4.68-6.288-8.652-11-12l-4-3Z" fill="#A96C90"/><path d="m278 253 1 2h5l-1 15 5.125-.125c7.078-.017 13.904.97 20.875 2.125.278 10.27-.475 20.448-1.227 30.685-.212 2.902-.416 5.805-.619 8.708l-.4 5.548-.183 2.623-.182 2.43-.155 2.132C306 326 306 326 305 329c-2.696.843-4.245 1.304-7 1-2.188-1.532-3.995-3.301-5.93-5.14-5.91-5.308-11.6-6.099-19.382-5.958l-2.245.022c-1.814.018-3.629.046-5.443.076-.162-7.736-.287-15.472-.363-23.21a902.014 902.014 0 0 0-.165-10.778 621.496 621.496 0 0 1-.136-10.407c-.02-1.964-.074-3.927-.13-5.89-.003-8.682-.003-8.682 2.278-11.638 3.577-2.671 7.031-3.749 11.516-4.077Z" fill="#BB7DA2"/><path d="m113 122 2.25 2.313c4.44 4.338 9.781 5.81 15.938 6 3.633-.298 6.41-1.076 9.812-2.313h4l1 7h2l1.688 2.75c2.84 3.992 4.97 5.079 9.312 7.25l1.863 1.086c5.086 2.176 11.522 1.673 16.746.156 3.548-1.512 6.108-2.98 8.953-5.617L189 139c3.438.688 3.438.688 5.465 1.348 5.364 1.38 11.021 1.358 16.535 1.652a343.93 343.93 0 0 1-2.25 4.313l-1.266 2.425c-1.63 2.486-2.975 3.685-5.484 5.262-2.21.37-2.21.37-4.657.36l-2.821.013-3.074-.032h-3.253a1765.5 1765.5 0 0 1-10.648-.048 5793.924 5793.924 0 0 1-26.813-.087c-6.61-.03-13.219-.044-19.828-.06A16019.85 16019.85 0 0 1 92 154a3312670352.564 3312670352.564 0 0 0-.068-8.296C92.117 138.351 95.92 132.08 101 127c7.22-6.258 7.22-6.258 12-5Z" fill="#F07878"/><path d="m144.297 167.434 2.75-.02c1.92-.006 3.84-.003 5.76.01 2.92.013 5.836-.02 8.756-.059 1.87 0 3.74.001 5.609.006l2.62-.04c7.305.11 11.977 2.715 17.31 7.59 3.482 4.18 6.54 8.48 9.5 13.044 6.239 9.08 16.67 16.576 27.398 19.035v2a1452.84 1452.84 0 0 1-9.063-.375l-2.568-.094c-5.126-.237-9.485-.97-14.369-2.531l-3.438-.438c-3.439-.543-6.178-1.458-9.382-2.742-2.426-.913-4.873-1.617-7.368-2.32-3.689-1.078-6.553-2.442-9.812-4.5-1.93-.708-3.86-1.414-5.797-2.105-3.927-1.595-7.551-3.756-11.203-5.895v-2l-4-1v-2h-2v-2l-1.734-.867L133 175v-2l-2-1c3.638-5.037 7.579-4.599 13.297-4.566Z" fill="#3F581F"/><path d="m194.25 309.813 2.64.019C199 310 199 310 200 311c.073 2.697.092 5.367.063 8.063l-.014 2.298c-.012 1.88-.03 3.76-.049 5.639l-3.262.078c-9.59.335-17.68 1.578-26.738 4.922l-3 1v2h-3l-.813 2.438L162 340l-3 1v2h-2l-1 3-2.16-.105c-6.197-.176-10.343.242-15.84 3.105l-3 1-1 4-12-1c.233-7.443 1.79-11.638 7-17 6.233-5.62 12.601-7.343 21-7l.625-2.188c2.033-4.157 5.203-6.726 9.375-8.812a95.33 95.33 0 0 1 5.125-.063l2.758.028L170 318v2c3.247.354 4.605.29 7.281-1.68l2.219-2.195c4.622-4.54 8.212-6.42 14.75-6.313Z" fill="#4A2603"/><path d="M233.383 69.797c2.76 1.324 5.001 2.447 6.953 4.844 2.53 2.067 4.593 1.504 7.789 1.296 9.084-.191 14.774 2.635 21.465 8.598C271 86 271 86 273 89c2.415.656 2.415.656 5.188.938 6.562 1.055 11.117 2.917 15.625 8C296.5 101.7 298 104.356 298 109l2.5.188c7.194 1.67 13.55 6.398 17.656 12.542 4.462 7.474 4.58 14.694 3.844 23.27-1.022 3.08-2.237 5.245-4 8l-3-2 1.469-2.512c2.937-6.69 2.72-15.321.722-22.32-2.864-5.819-7.392-9.413-13.191-12.168-3.026-.948-5.854-1.5-9-2l-.191-1.688C293.743 103.674 291.07 99.427 286 95c-3.175-1.058-5.606-1.101-8.938-1.188-5.735-.433-5.735-.433-8.437-3.562L267 87c-4.96-4.744-9.195-7.059-16.063-7.188-3.766-.003-3.766-.003-6.5 1.063-3.123.16-3.69-.667-6-2.688l-1.69-1.644c-4.178-3.69-7.816-3.904-13.216-3.809-3.66.384-6.233 1.65-9.531 3.266-3.688 1.324-4.778 1.091-8.5-.438-6.206-2.538-13.481-2.777-19.902-.835C180.95 76.92 175.338 80.324 173 85l-6-1v-2c-6.04.346-10.656.927-16 4h-2l-1 3h-2l-1 3-2.09.227c-8.63 1.207-14.847 3.925-20.347 10.835-3.044 5.722-4.032 10.524-4.563 16.938l-1.871.41c-8.496 2.16-15.231 6.097-20.067 13.59-2.905 6.438-2.905 6.438-4.062 20h222v1a148807.423 148807.423 0 0 1-117.383.537l-2.49.01c-13.323.058-26.646.122-39.97.19-13.661.068-27.323.128-40.985.182-8.436.034-16.872.073-25.307.12-5.778.032-11.557.056-17.335.074-3.338.011-6.675.026-10.013.048-3.612.023-7.224.034-10.836.042l-3.225.029-2.915-.002-2.53.012C39 156 39 156 37 154h52v-12c3.472-10.148 9.234-18.15 19-23 2.442-.675 4.45-.892 7-1l.008-1.836c.373-8.092 3.026-14.35 8.922-20.02 4.966-3.913 10.16-6.936 16.57-7.394 4.428-.949 5.834-2.852 8.816-6.094 3.275-3.22 6.626-3.597 11.059-3.844 3.625.188 3.625.188 5.566.63 4.125.896 4.125.896 7.957-.57 1.31-1.068 2.61-2.146 3.903-3.235C183.966 71.048 191.449 69.16 199 70c2.574.729 5.09 1.527 7.605 2.441 3.954.923 6.59.038 10.02-2.004 5.421-2.308 11.13-2.522 16.758-.64Z" fill="#F6E8E9"/><path d="M287.875 320.645c2.3 1.467 3.885 3.123 5.75 5.105 2.79 2.661 3.974 3.227 7.895 3.453 2.612-.135 5.224-.272 7.835-.41 5.751.327 8.803 3.166 12.645 7.207l1.691 1.563c3.45 3.79 2.392 10.616 2.309 15.437h-5l-2-4h-2c-3-3.462-3-3.462-3-6l-5-2v-2l-2.5-.813C303 337 303 337 299.625 335.375c-8.425-3.204-20.27-2.37-28.625.625l-2.813 1.688L266 339l-3-1h2v-18c8.365-2.788 14.834-3.222 22.875.645Z" fill="#4B2604"/><path d="M203 269c10.147 1.127 10.147 1.127 13.5 3.938l1.969 1.59c2.816 2.708 2.7 4.969 2.804 8.742.04 2.18.074 4.361.102 6.543l.113 3.314c.089 8.082.089 8.082-2.761 11.99-4.486 3.097-4.486 3.097-6.727 4.195l-1.938.989C208 311 208 311 203 311v-42Z" fill="#F9F7F7"/><path d="m296.688 199.875 2.449.055L301 200c-11.643 22.428-11.643 22.428-17 26-2.96-5.033-2.97-10.341-2-16 3.324-5.67 7.866-10.323 14.688-10.125Z" fill="#F6F6F4"/><path d="M345 366c6.84-.124 13.513.208 20.313.938l2.626.263c4.07.421 8.066.885 12.061 1.799l-1 3c-9.5 1.617-18.368 2.263-28 2l-.34-2.418L350 369c-2.476-1.375-2.476-1.375-5-2v-1Z" fill="#714319"/><path d="m148 102 1 3h2l1.688 2.25c2.752 3.274 5.237 5.473 9.312 6.75 4.356.32 8.641.236 13 0-1.291 2.92-1.874 3.916-4.625 5.75-5.478 2.029-9.49 2.058-14.875-.25L153 118v-2h-2c-2.434-4.97-3.346-8.346-3-14Z" fill="#F07A7A"/><path d="M240 106c-.875 7.75-.875 7.75-2 10h-2l-.688 1.813c-1.813 3.022-3.013 3.84-6.312 5.187-3.681.244-7.317.174-11 0v-7l15-3v-2c4.524-5 4.524-5 7-5Z" fill="#EB6E6D"/><path d="M71 368v2h5v1l5 1v1l12 1v1c-9.595.23-19.06-.027-28.625-.875l-2.797-.238c-5.09-.483-9.715-1.302-14.578-2.887l1-2c7.143-2.034 15.802-3.4 23-1Z" fill="#6B3D14"/><path d="m215 204 1.95.254c6.31.711 12.167.597 18.48.004 6.515-.47 13.041-.333 19.57-.258v2l2 1c-3.849 2.559-7.864 2.303-12.313 2.25l-2.4-.016c-9.158-.145-18.832-.459-27.287-4.234v-1Z" fill="#A36D8B"/><path d="M264 107h2c1.287 1.69 2.37 3.468 3.488 5.273 2.64 3.016 5.493 3.658 9.407 3.922l2.918-.07 2.957-.055L287 116l-1 4c-6.405 2.222-10.852 2.247-17.313-.313-2.88-1.808-3.79-2.455-4.687-5.687a97.595 97.595 0 0 1 0-7Z" fill="#EB6F6E"/><path d="M191 184c3.997 1.332 5.454 3.912 7.695 7.246 1.77 2.38 3.904 4.039 6.305 5.754l-1 3a84.76 84.76 0 0 1-7-2v-2l-5-1c-.879-3.734-1.09-7.168-1-11Z" fill="#364D17"/><path d="M180.25 170.625C183 171 183 171 185.75 173c2.907 3.876 3.007 6.222 3.25 11l-4 1c-.73-1.977-1.394-3.98-2-6l1-2-6-1c-.563-1.938-.563-1.938-1-4 1-1 1-1 3.25-1.375Z" fill="#334C14"/><path d="M317 154h62c-3.188 2.125-5.265 2.502-9 3v-2h-53v-1Z" fill="#F1E4ED"/><path d="M192 71c5.251-.201 10.108-.102 15.25 1.063 3.886.876 6.832.968 10.75-.063-2.125 2.563-2.125 2.563-5 5-3.27-.07-5.692-.888-8.75-2-4.37-1.345-8.705-1.659-13.25-2l1-2Z" fill="#F8F2F2"/><path d="m374.688 368.438 3.011.308L380 369l-1 3c-4.41 1.102-8.484 1.077-13 1v-4c3.311-1.104 5.247-.927 8.688-.563Z" fill="#734722"/><path d="m221 279 2 1c2.288 6.864 1.388 14.283-1 21h-1v-22Z" fill="#B47F99"/><path d="M12 228h1c1.03 4.252 1.192 8.397 1.188 12.75l.001 2.139c-.053 5.328-.73 10.004-2.189 15.111h-1c-.177-10.034.377-19.991 1-30Z" fill="#AF7097"/><path d="M148 168h19l-4 5-2.012-.621-2.675-.816-2.637-.81c-2.546-.716-5.076-1.27-7.676-1.753v-1Z" fill="#A3728A"/><path d="m208 113 10 3v6c-2.169-.506-4-1-6-2v-2h-2l-2-5Z" fill="#F07D7B"/><path d="M115 168h20c-5 4-5 4-7.754 4.023l-2.808-.648-2.817-.602C119 170 119 170 115 168Z" fill="#A37489"/><path d="M295 169v2h-4v2l4 1v2h-3v-2h-6l1 3-5-1c7.125-7.318 7.125-7.318 13-7Z" fill="#5C6B3C"/><path d="M149 83h2v3h-2l-1 3h-2l-1 3h-10c3-2 3-2 6.438-3.375 3.396-1.55 5.069-2.947 7.562-5.625Z" fill="#F8F1F1"/><path d="M81 372v1l12 1v1c-10.066.108-19.971-.023-30-1v-1c6.02-.61 11.947-1.135 18-1Z" fill="#845E3B"/><path d="m215 204 1.95.219c7.37.757 14.645.887 22.05.781v1h-6v2a712.139 712.139 0 0 1-6.188-.375c-1.148-.07-2.297-.14-3.48-.21-3.132-.39-5.485-1.096-8.332-2.415v-1Z" fill="#956B79"/><path d="M319 131h1c.25 2.541.476 5.08.688 7.625l.22 2.16c.384 4.92-.25 7.882-2.908 12.215l-3-2 1.457-2.54c1.698-3.807 2.035-6.688 2.23-10.835l.2-3.773L319 131Z" fill="#F4D4D8"/><path d="M362.945 367.805 369 368c-1.063 2.5-1.063 2.5-3 5-3.688.313-3.688.313-7 0 0-3.376.368-4.836 3.945-5.195Z" fill="#612F02"/><path d="M142 330c0 4 0 4-2 7v-2l-5 1v-2l-2-1c5.625-3 5.625-3 9-3Z" fill="#4E290D"/><path d="m95 169 2 1c-1.375 2-1.375 2-3 4h-2l1 3-2 2v-2h-2l-1 4h-2c1.453-5.327 5.081-8.364 9-12Z" fill="#636A44"/><path d="M301 111c6.147.369 8.69 1.9 13 6l-2 1c-2.602-1.215-2.602-1.215-5.625-2.938l-3.04-1.714L301 112v-1Z" fill="#F7F1F2"/><path d="m379 154 1.875 1c2.035 1.142 2.035 1.142 4.125 1l2-1c1.5 1.375 1.5 1.375 3 3v2c-1.176-.03-1.176-.03-2.375-.063-2.606-.124-2.606-.124-4.625 1.063l-1-3c-3.008-1.225-3.008-1.225-6-2l3-2Z" fill="#B07597"/><path d="m225.813 68.875 2.957.055L231 69c-2.85 2.408-4.848 3.442-8.563 3.813l-2.316.269C218 73 218 73 215 71c3.772-1.752 6.667-2.225 10.813-2.125Z" fill="#E9D6DD"/><path d="m346 96 7 6-2 3c-1.938-.563-1.938-.563-4-2-.75-3.625-.75-3.625-1-7Z" fill="#AE7997"/><path d="m113 122 1 3h-3l-1 3c-3.875-1.75-3.875-1.75-5-4 3.228-2.152 4.284-2.2 8-2Z" fill="#F3807F"/><path d="m141 90-1.813.875c-2.38 1.172-2.38 1.172-5.187 3.125a155.158 155.158 0 0 1-5 2c.063-1.813.063-1.813 1-4 6.929-3.791 6.929-3.791 11-2Z" fill="#EEDFE4"/><path d="M245 73v2l2-1c2.333-.04 4.667-.043 7 0v1c-8.135 2.552-8.135 2.552-12 2l-2-3c3-1 3-1 5-1Z" fill="#AE7799"/><path d="M322 133h1l1 8h2l-1 7h-2c-1.323-4.96-1.089-9.911-1-15Z" fill="#B87CA0"/><path d="m210 68 4 2v3c-2.313.625-2.313.625-5 1l-3-2h4v-4Z" fill="#AE769A"/><path d="M279 247h2c-.613 2.962-1.254 4.38-3 7-2.625.188-2.625.188-5 0a105.022 105.022 0 0 1 4-5h2v-2Z" fill="#9C6E83"/><path d="M284 242c1.675.286 3.344.618 5 1l-4 1v9h-1v-6h-3c1.875-3.875 1.875-3.875 3-5Z" fill="#9C6581"/><path d="M164 236h8l-1 2h4v4l-6-2v-2l-5-1v-1Z" fill="#606B41"/><path d="m265 201 2 1-1 4h-2l-1 2v-2l-6 1 8-6Z" fill="#656B46"/><path d="M240 323c2.375.313 2.375.313 5 1l2 3h-10l2-1 1-3Z" fill="#566328"/><path d="m123 93 4 2c-4.75 4.875-4.75 4.875-7 6 .75-5.75.75-5.75 3-8Z" fill="#AD7797"/><path d="m272 89 9 1v3h-10l1-4Z" fill="#EEDEE2"/><path d="M305 272h4v12h-1l-.586-6.152L307 276l-2-1v-3Z" fill="#AC6A93"/><path d="m312 195 1 2h2v2h-4l-1 3h-5l3-1c1.092-1.933 1.092-1.933 2-4l2-2Z" fill="#996E7E"/><path d="M144 229c1.605.087 3.21.196 4.813.313l2.707.175c2.786.575 3.721 1.333 5.48 3.512-4.714-.48-8.666-.968-13-3v-1Z" fill="#6C6B51"/><path d="m129 213 5 1 1 8c-2.275-2.167-4.236-4.396-6-7v-2Z" fill="#656C47"/><path d="M264.75 76.875 267 78l-1 4-8-4c4-2 4-2 6.75-1.125Z" fill="#AF7999"/><path d="M177 168c6.75.875 6.75.875 9 2l-1 4a809.016 809.016 0 0 1-4-2.438l-2.25-1.37L177 169v-1Z" fill="#9C6E83"/><path d="M112 105h5l-1 9c-2.503-2.938-3.47-5.179-4-9Z" fill="#AE7899"/><path d="m67 99 2 2-7 7c0-4 0-4 2.5-6.75L67 99Z" fill="#A97895"/><path d="m291 90 3 2-2 2 2 2c-3 0-3 0-4.688-1.375C288 93 288 93 288 91l3-1Z" fill="#AE7697"/><path d="m247 76 3.813-.125 2.144-.07C255 76 255 76 258 78c-1 1-1 1-3.813 1.25-3.464-.272-4.681-.937-7.187-3.25Z" fill="#EBE0E4"/><path d="m154 318 4 2-7 5 1-5h2v-2Z" fill="#B37992"/><path d="m220 302 2 1c-.998 2.993-1.752 3.948-4 6v-2l-2-1 3-1 1-3Z" fill="#5F7941"/><path d="M274 91c1.625-.027 3.25-.046 4.875-.063l2.742-.035C284 91 284 91 286 92v2l-12-2v-1Z" fill="#F8F8F9"/><path d="M158 84c-1.25 1.563-1.25 1.563-3 3-2.188-.313-2.188-.313-4-1 1.734-3.468 3.59-3.137 7-2Zm-9 2 2 1Z" fill="#F7A2A3"/><path d="m136 331 3 1-2 4h-2v-2l-2-1 3-2Z" fill="#562E18"/><path d="M298 330h4l-1 3 2 2h-5v-5Z" fill="#532B11"/><path d="m283 201 3 1 1 3-3 2-2-5 1-1Z" fill="#5B753E"/><path d="m116 116 1 4-6 1-1-2 6-1v-2Z" fill="#FAF5F4"/></svg>